<svg xmlns="http://www.w3.org/2000/svg" width="24.378" height="30.473" viewBox="0 0 24.378 30.473"><path d="M172.189-864.764a2.934,2.934,0,0,0,2.152-.9,2.934,2.934,0,0,0,.9-2.152,2.935,2.935,0,0,0-.9-2.152,2.935,2.935,0,0,0-2.152-.9,2.935,2.935,0,0,0-2.152.9,2.935,2.935,0,0,0-.9,2.152,2.934,2.934,0,0,0,.9,2.152A2.934,2.934,0,0,0,172.189-864.764Zm0,15.236a50.652,50.652,0,0,1-9.161-9.694Q160-863.7,160-867.506a11.783,11.783,0,0,1,3.676-9.1,12.176,12.176,0,0,1,8.513-3.39,12.176,12.176,0,0,1,8.513,3.39,11.784,11.784,0,0,1,3.676,9.1q0,3.809-3.028,8.285A50.651,50.651,0,0,1,172.189-849.527Z" transform="translate(-160 880)" fill="#fff"/></svg>